<svg width="32" height="26" viewBox="0 0 32 26" fill="none" xmlns="http://www.w3.org/2000/svg">
<path opacity="0.3" d="M31.4013 12.1822C31.4017 12.0928 31.3783 12.0049 31.3336 11.9273C31.2888 11.8497 31.2243 11.7852 31.1465 11.7403L26.0553 8.78648H26.0514L16.1396 3.23653C16.0622 3.19283 15.9747 3.16986 15.8856 3.16986C15.7966 3.16986 15.709 3.19283 15.6316 3.23653L10.1574 6.3657C10.0787 6.41096 10.0134 6.47617 9.96828 6.55468C9.92316 6.6332 9.89981 6.72219 9.90062 6.8126C9.90142 6.903 9.92635 6.99157 9.97286 7.06928C10.0194 7.14699 10.0858 7.21104 10.1653 7.25492L13.5679 9.12534L9.29492 11.5736L5.83696 13.5518C5.75855 13.5966 5.69342 13.6611 5.64813 13.7389C5.60283 13.8167 5.57899 13.905 5.57899 13.9948C5.57899 14.0847 5.60283 14.173 5.64813 14.2507C5.69342 14.3285 5.75855 14.3931 5.83696 14.4379L7.79541 15.548L3.17821 18.185C3.10067 18.2294 3.03614 18.2931 2.99101 18.3698C2.94588 18.4466 2.92172 18.5337 2.92092 18.6226C2.92012 18.7115 2.94271 18.7991 2.98645 18.8767C3.03019 18.9542 3.09356 19.0191 3.17029 19.0648L9.34239 22.7443C9.42051 22.7909 9.5097 22.816 9.60079 22.8169C9.69189 22.8179 9.7816 22.7947 9.86069 22.7498L12.1254 21.4667L18.6583 25.4819C18.739 25.5329 18.8325 25.5601 18.9281 25.5606C19.0184 25.5605 19.1071 25.5369 19.1853 25.4922L24.1396 22.6437C24.2185 22.5983 24.2839 22.5329 24.3289 22.4541C24.374 22.3754 24.3971 22.2861 24.396 22.1955C24.396 22.1782 24.396 22.1601 24.392 22.1428L30.9297 18.3784C31.0083 18.3332 31.0734 18.2681 31.1184 18.1897C31.1635 18.1114 31.1867 18.0225 31.1859 17.9323C31.1851 17.8421 31.1603 17.7537 31.1139 17.6761C31.0675 17.5985 31.0012 17.5346 30.9218 17.4908L26.6979 15.1588L31.1434 12.6232C31.2216 12.5788 31.2867 12.5146 31.332 12.4372C31.3773 12.3597 31.4012 12.2718 31.4013 12.1822V12.1822ZM14.8633 8.66933L11.4607 6.79969L15.8919 4.26884L24.7576 9.23463L15.1386 14.7233L10.5721 12.0202L14.872 9.55855C14.9507 9.51329 15.016 9.44807 15.0611 9.36956C15.1062 9.29105 15.1296 9.20205 15.1288 9.11165C15.128 9.02125 15.103 8.93267 15.0565 8.85497C15.01 8.77726 14.9436 8.71321 14.8641 8.66933H14.8633ZM9.6146 21.7151L4.44823 18.6363L9.08522 15.9859C9.16365 15.9412 9.22881 15.8768 9.27412 15.7991C9.31944 15.7213 9.34331 15.6331 9.34331 15.5433C9.34331 15.4535 9.31944 15.3652 9.27412 15.2875C9.22881 15.2098 9.16365 15.1453 9.08522 15.1006L7.12677 13.9921L9.5513 12.6036L14.0158 15.2461L10.2176 17.5741C10.1417 17.6206 10.0794 17.6859 10.0366 17.7635C9.99388 17.8412 9.97219 17.9286 9.97371 18.0171C9.97523 18.1056 9.99989 18.1922 10.0453 18.2683C10.0907 18.3445 10.1552 18.4076 10.2326 18.4515L12.6983 19.8486L10.1661 21.4007L9.6146 21.7151ZM18.9384 24.4536L13.0496 20.8369L13.977 20.2653C14.0528 20.2189 14.1152 20.1536 14.1579 20.0759C14.2007 19.9983 14.2224 19.9109 14.2209 19.8224C14.2193 19.7339 14.1947 19.6473 14.1493 19.5711C14.1039 19.4949 14.0394 19.4318 13.962 19.3879L11.4963 17.9908L15.0144 15.8334L19.2391 18.1921L18.1772 18.7943C18.0976 18.8391 18.0316 18.9043 17.9859 18.983C17.9402 19.0617 17.9165 19.1512 17.9173 19.242C17.9181 19.3329 17.9434 19.4219 17.9905 19.4998C18.0376 19.5777 18.1048 19.6417 18.1851 19.6851L22.8324 22.2128L18.9384 24.4536ZM25.3978 14.7233C25.3189 14.7684 25.2535 14.8335 25.2083 14.9119C25.163 14.9903 25.1395 15.0793 25.1402 15.1697C25.1408 15.2601 25.1656 15.3487 25.212 15.4265C25.2583 15.5043 25.3246 15.5685 25.4041 15.6125L29.6312 17.946L23.8183 21.2914C23.739 21.3374 23.6734 21.4036 23.6284 21.4832L19.4844 19.2299L20.5361 18.6339C20.615 18.5893 20.6807 18.5247 20.7264 18.4467C20.772 18.3686 20.7961 18.28 20.7961 18.1897C20.7961 18.0994 20.772 18.0108 20.7264 17.9328C20.6807 17.8547 20.615 17.7901 20.5361 17.7455L16.1768 15.3082L25.7974 9.818L29.8654 12.1767L25.3978 14.7233Z" fill="#7478C0"/>
<path opacity="0.7" d="M15.1341 6.73375C15.128 6.90819 15.0777 7.07823 14.9877 7.22796C14.8977 7.37769 14.7711 7.50221 14.6198 7.58986L11.5905 9.33321C11.4335 9.42336 11.2556 9.47082 11.0745 9.47082C10.8934 9.47082 10.7154 9.42336 10.5585 9.33321L7.52917 7.58986C7.37704 7.50424 7.25047 7.37985 7.16239 7.22942C7.07431 7.079 7.02789 6.90794 7.02789 6.73375C7.02789 6.55957 7.07431 6.38851 7.16239 6.23809C7.25047 6.08766 7.37704 5.96327 7.52917 5.87764L9.12065 4.96173L10.5585 5.78917C10.7152 5.87988 10.8932 5.92766 11.0745 5.92766C11.2557 5.92766 11.4337 5.87988 11.5905 5.78917L13.0291 4.96255L14.6198 5.87764C14.7714 5.96506 14.8981 6.08952 14.9881 6.2393C15.0781 6.38908 15.1283 6.55925 15.1341 6.73375V6.73375Z" fill="#C8C9F3"/>
<path opacity="0.7" d="M8.11755 18.9101C8.11239 19.0852 8.06234 19.2562 7.97217 19.4066C7.88199 19.5571 7.75469 19.682 7.60239 19.7694L4.57306 21.5136C4.41628 21.6038 4.23848 21.6512 4.0575 21.6512C3.87651 21.6512 3.69871 21.6038 3.54193 21.5136L0.509319 19.7694C0.357415 19.6824 0.230407 19.558 0.14041 19.4082C0.0742202 19.2954 0.0312356 19.1706 0.0139688 19.0411C-0.00329808 18.9116 0.00550013 18.7799 0.0398476 18.6539C0.074195 18.5278 0.133402 18.4098 0.214011 18.3068C0.29462 18.2038 0.395012 18.1178 0.509319 18.0539L2.09998 17.1389L3.54193 17.9671C3.69871 18.0573 3.87651 18.1047 4.0575 18.1047C4.23848 18.1047 4.41628 18.0573 4.57306 17.9671L6.01419 17.1397L7.60403 18.0539C7.75566 18.1414 7.8825 18.2658 7.97262 18.4156C8.06274 18.5654 8.11317 18.7355 8.11919 18.9101H8.11755Z" fill="#C8C9F3"/>
<path opacity="0.7" d="M31.1021 9.76406C31.0963 9.93857 31.0461 10.1087 30.9561 10.2585C30.8661 10.4083 30.7393 10.5328 30.5877 10.6202L27.5576 12.3643C27.4008 12.4545 27.223 12.502 27.042 12.502C26.861 12.502 26.6832 12.4545 26.5265 12.3643L23.4971 10.6202C23.3452 10.5331 23.2182 10.4088 23.1282 10.2589C23.0626 10.1463 23.02 10.0218 23.003 9.89258C22.986 9.76342 22.9949 9.63217 23.0293 9.50647C23.0636 9.38078 23.1226 9.26313 23.2029 9.16039C23.2833 9.05764 23.3833 8.97183 23.4971 8.90795L25.0878 7.99286L26.5265 8.82029C26.6832 8.91045 26.861 8.95791 27.042 8.95791C27.223 8.95791 27.4008 8.91045 27.5576 8.82029L28.9971 7.99286L30.5877 8.90795C30.7391 8.99581 30.8657 9.12037 30.9558 9.27006C31.0458 9.41882 31.0961 9.58801 31.1021 9.7616V9.76406Z" fill="#C8C9F3"/>
<path opacity="0.7" d="M20.3302 15.8265C20.3242 16.0001 20.2739 16.1693 20.184 16.3181C20.0938 16.468 19.9668 16.5926 19.8151 16.6802L16.7857 18.426C16.6292 18.5167 16.4513 18.5645 16.2702 18.5645C16.0891 18.5645 15.9112 18.5167 15.7546 18.426L12.7253 16.6826C12.5735 16.5951 12.4466 16.4705 12.3564 16.3205C12.2908 16.2079 12.2484 16.0835 12.2315 15.9544C12.2145 15.8253 12.2235 15.6942 12.2578 15.5686C12.2921 15.443 12.3511 15.3254 12.4314 15.2228C12.5116 15.1201 12.6115 15.0343 12.7253 14.9704L14.3127 14.0545L15.7513 14.8819C15.9079 14.9727 16.0858 15.0205 16.2669 15.0205C16.448 15.0205 16.6259 14.9727 16.7825 14.8819L18.2219 14.0553L19.8175 14.9704C19.9694 15.0576 20.0964 15.182 20.1865 15.3318C20.2767 15.4816 20.327 15.6519 20.3327 15.8265H20.3302Z" fill="#C8C9F3"/>
<path opacity="0.7" d="M29.3152 22.7927C29.3092 22.9672 29.2588 23.1374 29.1686 23.2871C29.0785 23.4369 28.9517 23.5613 28.8 23.6488L25.7707 25.3921C25.6139 25.4823 25.4361 25.5297 25.2552 25.5297C25.0742 25.5297 24.8964 25.4823 24.7396 25.3921L21.7103 23.6488C21.5581 23.5631 21.4316 23.4387 21.3435 23.2883C21.2554 23.1379 21.209 22.9668 21.209 22.7927C21.209 22.6185 21.2554 22.4474 21.3435 22.297C21.4316 22.1466 21.5581 22.0222 21.7103 21.9365L23.3009 21.0206L24.7396 21.8481C24.8962 21.9388 25.074 21.9866 25.2552 21.9866C25.4363 21.9866 25.6141 21.9388 25.7707 21.8481L27.211 21.0214L28.8009 21.9365C28.9527 22.0237 29.0797 22.1481 29.1699 22.2979C29.26 22.4478 29.3103 22.618 29.316 22.7927H29.3152Z" fill="#C8C9F3"/>
<path opacity="0.5" d="M13.0248 8.52931L11.587 9.35674C11.4302 9.44746 11.2522 9.49524 11.071 9.49524C10.8898 9.49524 10.7118 9.44746 10.555 9.35674L9.11719 8.52931L10.555 7.70105C10.7118 7.61034 10.8898 7.56256 11.071 7.56256C11.2522 7.56256 11.4302 7.61034 11.587 7.70105L13.0248 8.52931Z" fill="#7478C0"/>
<path opacity="0.5" d="M6.01374 20.7066L4.57343 21.534C4.41666 21.6242 4.23885 21.6716 4.05787 21.6716C3.87688 21.6716 3.69908 21.6242 3.5423 21.534L2.10364 20.7066L3.5423 19.8783C3.69889 19.7876 3.87676 19.7398 4.05787 19.7398C4.23897 19.7398 4.41685 19.7876 4.57343 19.8783L6.01374 20.7066Z" fill="#7478C0"/>
<path opacity="0.5" d="M28.9973 11.5598L27.5587 12.388C27.4019 12.4782 27.2241 12.5256 27.0431 12.5256C26.8621 12.5256 26.6843 12.4782 26.5275 12.388L25.0889 11.5598L26.5275 10.7323C26.6841 10.6416 26.862 10.5938 27.0431 10.5938C27.2242 10.5938 27.4021 10.6416 27.5587 10.7323L28.9973 11.5598Z" fill="#7478C0"/>
<path opacity="0.5" d="M18.2254 17.6219L16.7867 18.4494C16.6301 18.5401 16.4522 18.5879 16.2711 18.5879C16.09 18.5879 15.9121 18.5401 15.7556 18.4494L14.3169 17.6219L15.7556 16.7937C15.9123 16.7035 16.0901 16.6561 16.2711 16.6561C16.4521 16.6561 16.6299 16.7035 16.7867 16.7937L18.2254 17.6219Z" fill="#7478C0"/>
<path opacity="0.5" d="M27.2117 24.5879L25.773 25.4154C25.6164 25.5061 25.4386 25.5539 25.2575 25.5539C25.0764 25.5539 24.8985 25.5061 24.7419 25.4154L23.3032 24.5879L24.7419 23.7597C24.8985 23.6689 25.0764 23.6212 25.2575 23.6212C25.4386 23.6212 25.6164 23.6689 25.773 23.7597L27.2117 24.5879Z" fill="#7478C0"/>
<path opacity="0.5" d="M15.1341 4.94188C15.128 5.11632 15.0777 5.28636 14.9877 5.43609C14.8977 5.58582 14.7711 5.71034 14.6198 5.79799L11.5905 7.54134C11.4335 7.63149 11.2556 7.67895 11.0745 7.67895C10.8934 7.67895 10.7154 7.63149 10.5585 7.54134L7.52917 5.79799C7.37704 5.71237 7.25047 5.58798 7.16239 5.43755C7.07431 5.28713 7.02789 5.11607 7.02789 4.94188C7.02789 4.7677 7.07431 4.59664 7.16239 4.44622C7.25047 4.29579 7.37704 4.1714 7.52917 4.08577L9.12065 3.16986L10.5585 3.9973C10.7152 4.08801 10.8932 4.13579 11.0745 4.13579C11.2557 4.13579 11.4337 4.08801 11.5905 3.9973L13.0291 3.17068L14.6198 4.08577C14.7714 4.17319 14.8981 4.29765 14.9881 4.44743C15.0781 4.59721 15.1283 4.76738 15.1341 4.94188V4.94188Z" fill="#7478C0"/>
<path opacity="0.5" d="M8.11755 17.1184C8.11239 17.2936 8.06234 17.4646 7.97217 17.615C7.88199 17.7654 7.75469 17.8903 7.60239 17.9778L4.57306 19.722C4.41628 19.8121 4.23848 19.8596 4.0575 19.8596C3.87651 19.8596 3.69871 19.8121 3.54193 19.722L0.509319 17.9778C0.357415 17.8908 0.230407 17.7664 0.14041 17.6165C0.0742202 17.5038 0.0312356 17.379 0.0139688 17.2495C-0.00329808 17.12 0.00550013 16.9883 0.0398476 16.8622C0.074195 16.7361 0.133402 16.6182 0.214011 16.5152C0.29462 16.4121 0.395012 16.3262 0.509319 16.2623L2.09998 15.3472L3.54193 16.1755C3.69871 16.2656 3.87651 16.3131 4.0575 16.3131C4.23848 16.3131 4.41628 16.2656 4.57306 16.1755L6.01419 15.348L7.60403 16.2623C7.75566 16.3498 7.8825 16.4742 7.97262 16.624C8.06274 16.7737 8.11317 16.9439 8.11919 17.1184H8.11755Z" fill="#7478C0"/>
<path opacity="0.5" d="M31.1021 7.97219C31.0963 8.1467 31.0461 8.31686 30.9561 8.46664C30.8661 8.61642 30.7393 8.74089 30.5877 8.8283L27.5576 10.5725C27.4008 10.6626 27.223 10.7101 27.042 10.7101C26.861 10.7101 26.6832 10.6626 26.5265 10.5725L23.4971 8.8283C23.3452 8.74127 23.2182 8.61689 23.1282 8.46702C23.0626 8.35439 23.02 8.22988 23.003 8.10071C22.986 7.97155 22.9949 7.8403 23.0293 7.7146C23.0636 7.58891 23.1226 7.47126 23.2029 7.36852C23.2833 7.26577 23.3833 7.17996 23.4971 7.11608L25.0878 6.20099L26.5265 7.02842C26.6832 7.11858 26.861 7.16604 27.042 7.16604C27.223 7.16604 27.4008 7.11858 27.5576 7.02842L28.9971 6.20099L30.5877 7.11608C30.7391 7.20394 30.8657 7.3285 30.9558 7.47819C31.0458 7.62695 31.0961 7.79614 31.1021 7.96973V7.97219Z" fill="#7478C0"/>
<path opacity="0.5" d="M20.3302 14.0349C20.3242 14.2085 20.2739 14.3777 20.184 14.5264C20.0938 14.6764 19.9668 14.801 19.8151 14.8886L16.7857 16.6344C16.6292 16.7251 16.4513 16.7729 16.2702 16.7729C16.0891 16.7729 15.9112 16.7251 15.7546 16.6344L12.7253 14.891C12.5735 14.8034 12.4466 14.6788 12.3564 14.5289C12.2908 14.4163 12.2484 14.2919 12.2315 14.1628C12.2145 14.0337 12.2235 13.9026 12.2578 13.777C12.2921 13.6514 12.3511 13.5338 12.4314 13.4311C12.5116 13.3284 12.6115 13.2427 12.7253 13.1788L14.3127 12.2629L15.7513 13.0903C15.9079 13.181 16.0858 13.2288 16.2669 13.2288C16.448 13.2288 16.6259 13.181 16.7825 13.0903L18.2219 12.2637L19.8175 13.1788C19.9694 13.266 20.0964 13.3904 20.1865 13.5402C20.2767 13.69 20.327 13.8603 20.3327 14.0349H20.3302Z" fill="#7478C0"/>
<path opacity="0.5" d="M29.3152 21.0008C29.3092 21.1753 29.2588 21.3455 29.1686 21.4952C29.0785 21.645 28.9517 21.7695 28.8 21.8569L25.7707 23.6002C25.6139 23.6904 25.4361 23.7379 25.2552 23.7379C25.0742 23.7379 24.8964 23.6904 24.7396 23.6002L21.7103 21.8569C21.5581 21.7713 21.4316 21.6469 21.3435 21.4964C21.2554 21.346 21.209 21.175 21.209 21.0008C21.209 20.8266 21.2554 20.6555 21.3435 20.5051C21.4316 20.3547 21.5581 20.2303 21.7103 20.1447L23.3009 19.2288L24.7396 20.0562C24.8962 20.1469 25.074 20.1947 25.2552 20.1947C25.4363 20.1947 25.6141 20.1469 25.7707 20.0562L27.211 19.2296L28.8009 20.1447C28.9527 20.2319 29.0797 20.3563 29.1699 20.5061C29.26 20.6559 29.3103 20.8262 29.316 21.0008H29.3152Z" fill="#7478C0"/>
<path opacity="0.2" d="M13.0248 6.68532L11.587 7.51275C11.4302 7.60346 11.2522 7.65124 11.071 7.65124C10.8898 7.65124 10.7118 7.60346 10.555 7.51275L9.11719 6.68532L10.555 5.85706C10.7118 5.76635 10.8898 5.71857 11.071 5.71857C11.2522 5.71857 11.4302 5.76635 11.587 5.85706L13.0248 6.68532Z" fill="#00057D"/>
<path opacity="0.2" d="M6.01374 18.8624L4.57343 19.6898C4.41666 19.78 4.23885 19.8274 4.05787 19.8274C3.87688 19.8274 3.69908 19.78 3.5423 19.6898L2.10364 18.8624L3.5423 18.0341C3.69889 17.9434 3.87676 17.8956 4.05787 17.8956C4.23897 17.8956 4.41685 17.9434 4.57343 18.0341L6.01374 18.8624Z" fill="#00057D"/>
<path opacity="0.2" d="M28.9973 9.71558L27.5587 10.5438C27.4019 10.634 27.2241 10.6815 27.0431 10.6815C26.8621 10.6815 26.6843 10.634 26.5275 10.5438L25.0889 9.71558L26.5275 8.88814C26.6841 8.79742 26.862 8.74963 27.0431 8.74963C27.2242 8.74963 27.4021 8.79742 27.5587 8.88814L28.9973 9.71558Z" fill="#00057D"/>
<path opacity="0.2" d="M18.2254 15.7781L16.7867 16.6055C16.6301 16.6962 16.4522 16.744 16.2711 16.744C16.09 16.744 15.9121 16.6962 15.7556 16.6055L14.3169 15.7781L15.7556 14.9498C15.9123 14.8597 16.0901 14.8122 16.2711 14.8122C16.4521 14.8122 16.6299 14.8597 16.7867 14.9498L18.2254 15.7781Z" fill="#00057D"/>
<path opacity="0.2" d="M27.2117 22.7439L25.773 23.5714C25.6164 23.6621 25.4386 23.7099 25.2575 23.7099C25.0764 23.7099 24.8985 23.6621 24.7419 23.5714L23.3032 22.7439L24.7419 21.9157C24.8985 21.8249 25.0764 21.7772 25.2575 21.7772C25.4386 21.7772 25.6164 21.8249 25.773 21.9157L27.2117 22.7439Z" fill="#00057D"/>
<path d="M15.134 3.18383C15.1297 3.35953 15.0801 3.53116 14.99 3.68223C14.8999 3.8333 14.7724 3.95874 14.6197 4.04649L13.029 4.96241L11.5912 4.13415C11.4345 4.04344 11.2564 3.99566 11.0752 3.99566C10.894 3.99566 10.716 4.04344 10.5592 4.13415L9.1214 4.96241L7.52581 4.04649C7.3705 3.96186 7.24091 3.8371 7.15062 3.68531C7.06034 3.53353 7.0127 3.3603 7.0127 3.18383C7.0127 3.00735 7.06034 2.83413 7.15062 2.68234C7.24091 2.53056 7.3705 2.4058 7.52581 2.32116L10.5551 0.576997C10.7121 0.486846 10.89 0.439392 11.0711 0.439392C11.2522 0.439392 11.4302 0.486846 11.5871 0.576997L14.6164 2.31953C14.7689 2.40753 14.8962 2.53305 14.9861 2.68409C15.0782 2.835 15.1292 3.00725 15.134 3.18383V3.18383Z" fill="#EB345C"/>
<path d="M8.11723 15.3611C8.11265 15.5367 8.06286 15.7082 7.97265 15.8591C7.88244 16.0101 7.75482 16.1353 7.60207 16.2229L6.01387 17.1396L4.57521 16.3114C4.41862 16.2207 4.24075 16.1729 4.05964 16.1729C3.87854 16.1729 3.70066 16.2207 3.54408 16.3114L2.10377 17.1396L0.51311 16.2229C0.357804 16.1383 0.228209 16.0135 0.137925 15.8617C0.0476423 15.7099 0 15.5367 0 15.3602C0 15.1838 0.0476423 15.0106 0.137925 14.8588C0.228209 14.707 0.357804 14.5822 0.51311 14.4976L3.54243 12.7542C3.69902 12.6635 3.8769 12.6157 4.058 12.6157C4.2391 12.6157 4.41698 12.6635 4.57357 12.7542L7.60289 14.4976C7.75578 14.5853 7.88342 14.7109 7.97351 14.8621C8.06359 15.0134 8.11309 15.1852 8.11723 15.3611V15.3611Z" fill="#D9339C"/>
<path d="M31.1016 6.21525C31.097 6.39078 31.0472 6.56218 30.9572 6.71307C30.8671 6.86396 30.7398 6.9893 30.5873 7.0771L28.9966 7.99301L27.5579 7.16557C27.4014 7.07485 27.2235 7.02706 27.0424 7.02706C26.8613 7.02706 26.6834 7.07485 26.5268 7.16557L25.0881 7.99301L23.4975 7.0771C23.3422 6.99246 23.2126 6.86771 23.1223 6.71592C23.032 6.56413 22.9844 6.39091 22.9844 6.21443C22.9844 6.03796 23.032 5.86474 23.1223 5.71295C23.2126 5.56116 23.3422 5.4364 23.4975 5.35177L26.5268 3.60842C26.6834 3.5177 26.8613 3.46991 27.0424 3.46991C27.2235 3.46991 27.4014 3.5177 27.5579 3.60842L30.5873 5.35095C30.7402 5.43871 30.8678 5.56427 30.9579 5.71551C31.048 5.86675 31.0975 6.03858 31.1016 6.21443V6.21525Z" fill="#7D23F5"/>
<path d="M20.3306 12.2765C20.3262 12.452 20.2767 12.6234 20.187 12.7744C20.0972 12.9255 19.9701 13.051 19.8179 13.1392L18.228 14.0551L16.7894 13.2268C16.6326 13.1367 16.4548 13.0892 16.2738 13.0892C16.0928 13.0892 15.915 13.1367 15.7583 13.2268L14.3196 14.0551L12.7289 13.1392C12.5736 13.0545 12.444 12.9298 12.3537 12.778C12.2635 12.6262 12.2158 12.453 12.2158 12.2765C12.2158 12.1 12.2635 11.9268 12.3537 11.775C12.444 11.6232 12.5736 11.4985 12.7289 11.4138L15.7583 9.66966C15.915 9.5795 16.0928 9.53204 16.2738 9.53204C16.4548 9.53204 16.6326 9.5795 16.7894 9.66966L19.8179 11.413C19.9708 11.5008 20.0984 11.6263 20.1884 11.7776C20.2775 11.9292 20.3264 12.1009 20.3306 12.2765V12.2765Z" fill="#C116F0"/>
<path d="M29.316 19.2426C29.3113 19.4183 29.2615 19.5899 29.1713 19.741C29.0811 19.892 28.9535 20.0174 28.8008 20.1053L27.2118 21.0212L25.7731 20.1929C25.6165 20.1022 25.4387 20.0544 25.2576 20.0544C25.0765 20.0544 24.8986 20.1022 24.742 20.1929L23.3033 21.0212L21.7118 20.1053C21.5565 20.0206 21.4269 19.8959 21.3367 19.7441C21.2464 19.5923 21.1987 19.4191 21.1987 19.2426C21.1987 19.0661 21.2464 18.8929 21.3367 18.7411C21.4269 18.5893 21.5565 18.4646 21.7118 18.38L24.7412 16.6358C24.8979 16.5456 25.0757 16.4982 25.2567 16.4982C25.4377 16.4982 25.6155 16.5456 25.7723 16.6358L28.8016 18.3767C28.9541 18.4647 29.0814 18.5902 29.1714 18.7412C29.2615 18.8923 29.3112 19.0637 29.316 19.2393V19.2426Z" fill="#37DBF3"/>
<path d="M13.0248 4.96229L11.587 5.78973C11.4302 5.88044 11.2522 5.92822 11.071 5.92822C10.8898 5.92822 10.7118 5.88044 10.555 5.78973L9.11719 4.96229L10.555 4.13404C10.7118 4.04332 10.8898 3.99554 11.071 3.99554C11.2522 3.99554 11.4302 4.04332 11.587 4.13404L13.0248 4.96229Z" fill="#CA3455"/>
<path d="M6.01374 17.1396L4.57343 17.967C4.41666 18.0571 4.23885 18.1046 4.05787 18.1046C3.87688 18.1046 3.69908 18.0571 3.5423 17.967L2.10364 17.1396L3.5423 16.3113C3.69889 16.2206 3.87676 16.1728 4.05787 16.1728C4.23897 16.1728 4.41685 16.2206 4.57343 16.3113L6.01374 17.1396Z" fill="#B53385"/>
<path d="M28.9973 7.99292L27.5587 8.82118C27.4019 8.91134 27.2241 8.9588 27.0431 8.9588C26.8621 8.9588 26.6843 8.91134 26.5275 8.82118L25.0889 7.99292L26.5275 7.16549C26.6841 7.07476 26.862 7.02698 27.0431 7.02698C27.2242 7.02698 27.4021 7.07476 27.5587 7.16549L28.9973 7.99292Z" fill="#6723C0"/>
<path d="M18.2254 14.0552L16.7867 14.8826C16.6301 14.9733 16.4522 15.0211 16.2711 15.0211C16.09 15.0211 15.9121 14.9733 15.7556 14.8826L14.3169 14.0552L15.7556 13.2269C15.9123 13.1368 16.0901 13.0893 16.2711 13.0893C16.4521 13.0893 16.6299 13.1368 16.7867 13.2269L18.2254 14.0552Z" fill="#A020C4"/>
<path d="M27.2117 21.0211L25.773 21.8486C25.6164 21.9393 25.4386 21.9871 25.2575 21.9871C25.0764 21.9871 24.8985 21.9393 24.7419 21.8486L23.3032 21.0211L24.7419 20.1929C24.8985 20.1022 25.0764 20.0544 25.2575 20.0544C25.4386 20.0544 25.6164 20.1022 25.773 20.1929L27.2117 21.0211Z" fill="#2CB4C8"/>
</svg>